<svg version="1.1" id="Layer_1" xmlns="http://www.w3.org/2000/svg" xmlns:xlink="http://www.w3.org/1999/xlink" viewBox="0 0 512 512" xml:space="preserve" fill="#000000"><g id="SVGRepo_bgCarrier" stroke-width="0"></g><g id="SVGRepo_tracerCarrier" stroke-linecap="round" stroke-linejoin="round"></g><g id="SVGRepo_iconCarrier"> <rect x="34.162" style="fill:#5f95ec;" width="396.018" height="482.745"></rect> <rect x="232.951" style="fill:#5f95ec;" width="197.225" height="482.745"></rect> <g> <rect x="93.466" y="54.335" style="fill:#57555C;" width="278.968" height="89.914"></rect> <rect x="93.466" y="167.101" style="fill:#57555C;" width="278.968" height="89.914"></rect> </g> <g> <rect x="97.322" y="405.067" style="fill:#FFFFFF;" width="21.682" height="21.682"></rect> <rect x="136.328" y="405.067" style="fill:#FFFFFF;" width="21.682" height="21.682"></rect> <rect x="287.494" y="88.451" style="fill:#FFFFFF;" width="21.682" height="21.682"></rect> <rect x="326.501" y="88.451" style="fill:#FFFFFF;" width="21.682" height="21.682"></rect> </g> <g> <rect x="232.951" y="54.335" style="fill:#3C3A41;" width="139.484" height="89.914"></rect> <rect x="232.951" y="167.101" style="fill:#3C3A41;" width="139.484" height="89.914"></rect> </g> <g> <rect x="278.832" y="88.451" style="fill:#AEADB3;" width="21.682" height="21.682"></rect> <rect x="317.838" y="88.451" style="fill:#AEADB3;" width="21.682" height="21.682"></rect> <rect x="278.832" y="201.217" style="fill:#AEADB3;" width="21.682" height="21.682"></rect> <rect x="317.838" y="201.217" style="fill:#AEADB3;" width="21.682" height="21.682"></rect> </g> <path style="fill:#ff4d4d;" d="M477.838,406.601C477.838,464.812,430.65,512,372.439,512c-0.251,0-0.502,0-0.752-0.01 c-28.474-0.188-54.251-11.682-73.101-30.208c-16.927-16.635-28.265-38.933-30.929-63.844c-0.397-3.72-0.617-7.502-0.617-11.337 c0-31.587,13.908-59.925,35.913-79.245c0.24-0.209,0.481-0.418,0.721-0.616c8.579-7.398,18.369-13.427,29.017-17.774 c12.048-4.901,25.203-7.659,38.996-7.743c0.251-0.01,0.502-0.01,0.752-0.01C430.65,301.212,477.838,348.389,477.838,406.601z"></path> <path style="fill:#ff401f;" d="M477.838,406.601C477.838,464.812,430.65,512,372.439,512c-0.251,0-0.502,0-0.752-0.01V301.222 c0.251-0.01,0.502-0.01,0.752-0.01C430.65,301.212,477.838,348.389,477.838,406.601z"></path> <polygon style="fill:#FFFFFF;" points="393.854,407.63 421.993,435.759 399.82,457.932 371.692,429.792 342.09,459.394 319.927,437.222 349.519,407.63 321.39,379.491 343.552,357.328 371.681,385.447 371.692,385.457 401.283,355.865 423.446,378.038 "></polygon> <polygon style="fill:#D9D8DB;" points="393.854,407.63 421.993,435.759 399.82,457.932 371.692,429.792 371.681,429.803 371.681,385.447 371.692,385.457 401.283,355.865 423.446,378.038 "></polygon> </g></svg>